<!-- Generator: Adobe Illustrator 25.2.3, SVG Export Plug-In  -->
<svg version="1.1" xmlns="http://www.w3.org/2000/svg" xmlns:xlink="http://www.w3.org/1999/xlink" x="0px" y="0px"
	 width="175.24px" height="51.29px" viewBox="0 0 175.24 51.29" style="overflow:visible;enable-background:new 0 0 175.24 51.29;"
	 xml:space="preserve">
<style type="text/css">
	.st0{fill:#FFFFFF;stroke:#000000;stroke-miterlimit:10;}
	.st1{fill:none;stroke:#000000;stroke-miterlimit:10;}
</style>
<defs>
</defs>
<rect x="0.5" y="0.5" class="st0" width="174.24" height="25.05"/>
<rect x="0.5" y="25.74" class="st0" width="174.24" height="25.05"/>
<rect x="0.5" y="25.74" class="st1" width="48.61" height="25.05"/>
<rect x="72.86" y="0.5" class="st1" width="25.05" height="25.05"/>
<g>
	<path d="M80.78,10.69V9.53c-0.92,0.08-1.83,0.1-2.73,0.12C78,9.48,77.92,9.27,77.78,9.1h0.39c1.18,0,3.63-0.07,5.55-0.41l0.42,0.49
		c-0.95,0.15-2.13,0.25-2.84,0.3v1.19h1.06c0.25-0.43,0.48-0.93,0.66-1.31l0.52,0.32c-0.22,0.38-0.42,0.7-0.58,0.99h1.87v0.5h-2.95
		c0.93,1.02,1.89,1.56,3.16,2c-0.18,0.15-0.3,0.35-0.41,0.5c-0.37-0.17-0.71-0.32-1-0.49v3.17h-0.54v-0.35h-3.9v0.38h-0.54v-3.25
		c-0.3,0.2-0.74,0.42-1.09,0.58c-0.09-0.16-0.18-0.35-0.38-0.5c0.59-0.22,0.91-0.38,1.16-0.54c0.41-0.23,1.26-0.79,1.9-1.5h-2.92
		v-0.5h1.88c-0.12-0.22-0.29-0.51-0.51-0.81l0.47-0.22c0.22,0.27,0.5,0.75,0.65,1.03H80.78z M81.3,12.74h-0.52v-1.43
		c-0.38,0.46-0.63,0.68-0.88,0.9c-0.28,0.23-0.55,0.46-1.04,0.78h4.36c-0.9-0.58-1.49-1.12-1.92-1.7V12.74z M79.17,13.49v0.78h1.58
		v-0.78H79.17z M79.17,14.74v0.78h1.58v-0.78H79.17z M81.3,13.49v0.78h1.77v-0.78H81.3z M81.3,14.74v0.78h1.77v-0.78H81.3z"/>
	<path d="M93.5,11.92v0.55h-5.36c-0.08,0.29-0.14,0.56-0.22,0.91h4.47c-0.03,0.27-0.15,1.84-0.29,2.34
		c-0.16,0.59-0.49,0.61-1.61,0.67c-0.02-0.22-0.08-0.42-0.17-0.62h0.83c0.22,0,0.31-0.04,0.36-0.21c0.04-0.15,0.13-0.73,0.18-1.64
		h-3.9c-0.07,0.23-0.13,0.48-0.23,0.75l-0.6-0.14c0.34-1.14,0.4-1.38,0.56-2.07h-1.69v-0.55H93.5z M92.26,8.91v2.28H87.1V8.91H92.26
		z M87.7,9.46v1.19h3.95V9.46H87.7z"/>
</g>
<rect x="0.5" y="0.5" class="st1" width="25.05" height="25.05"/>
<g>
	<path d="M11.45,11.75l0.5-0.2c0.22,0.46,0.42,0.95,0.57,1.44L12,13.19l-0.1-0.33l-0.75,0.1v3.4h-0.55V13
		c-0.48,0.04-0.94,0.08-1.39,0.12l-0.12-0.55l0.75-0.03c0.23-0.37,0.43-0.73,0.65-1.16c-0.38-0.3-0.81-0.61-1.36-0.93l0.28-0.47
		l0.35,0.2c0.32-0.55,0.61-1.2,0.81-1.68l0.54,0.31c-0.47,0.92-0.57,1.1-0.9,1.67l0.55,0.41c0.29-0.47,0.54-0.93,0.8-1.44l0.53,0.31
		c-0.25,0.44-1.39,2.36-1.62,2.75c0.42-0.02,0.87-0.05,1.27-0.1L11.45,11.75z M10.15,13.73c-0.09,0.71-0.26,1.45-0.45,2.05
		c-0.14-0.05-0.34-0.12-0.51-0.18c0.15-0.48,0.26-0.86,0.44-2.01L10.15,13.73z M12.05,13.62c0.04,0.46,0.12,0.88,0.24,1.31
		c-0.17,0.03-0.35,0.07-0.49,0.1c-0.12-0.43-0.21-0.89-0.24-1.35L12.05,13.62z M16.18,8.99v6.49h0.8v0.53h-4.87v-0.53h0.93V8.99
		H16.18z M13.6,9.52v1.57h2.03V9.52H13.6z M13.6,11.6v1.58h2.03V11.6H13.6z M13.6,13.7v1.78h2.03V13.7H13.6z"/>
</g>
<g>
	<path d="M19.72,37.24v0.54h-2.63c0.17,1.32,0.56,2.32,1.18,2.97c0.08,0.08,0.43,0.46,0.67,0.46c0.19,0,0.29-0.5,0.36-0.92
		c0.19,0.13,0.39,0.23,0.62,0.27c-0.2,0.94-0.36,1.26-0.87,1.26c-0.81,0-1.58-0.87-2.05-2.05c-0.32-0.82-0.41-1.32-0.48-1.99h-2.62
		v3.08c0.75-0.13,1.63-0.27,2.56-0.48l-0.01,0.57c-1.06,0.23-3.67,0.73-3.99,0.78l-0.16-0.63c0.41-0.05,0.73-0.1,1-0.14v-6
		l0.57,0.12c0.37,0,3-0.18,5.12-0.65l0.28,0.6c-0.68,0.12-1.5,0.23-2.28,0.32c-0.02,0.7,0.01,1.4,0.07,1.9H19.72z M13.88,37.24h2.56
		c-0.05-0.51-0.09-1.24-0.09-1.83c-0.86,0.09-1.79,0.16-2.47,0.2V37.24z"/>
	<path d="M35.36,35.04l0.1-0.08l0.48,0.42c-0.83,1.14-1.69,2.16-2.99,3.08h3.53v3.47h-0.58v-0.51h-3.62v0.53H31.7v-2.67
		c-0.72,0.37-1.12,0.57-1.7,0.81c-0.07-0.17-0.23-0.42-0.38-0.58c0.85-0.29,1.76-0.61,2.92-1.49c-0.3-0.33-0.8-0.82-1.17-1.11
		l0.42-0.39c0.35,0.29,0.88,0.78,1.25,1.16c0.67-0.56,1.13-0.99,2.01-2.12h-2.79c-0.59,0.55-1.45,1.32-2.29,1.8
		c-0.1-0.16-0.24-0.35-0.42-0.48c0.74-0.37,1.41-0.94,1.75-1.25c0.58-0.54,0.98-1.04,1.31-1.5l0.56,0.24
		c-0.17,0.25-0.31,0.45-0.5,0.66H35.36z M32.28,39v1.9h3.62V39H32.28z"/>
</g>
</svg>
