<!-- Generator: Adobe Illustrator 25.2.3, SVG Export Plug-In  -->
<svg version="1.1" xmlns="http://www.w3.org/2000/svg" xmlns:xlink="http://www.w3.org/1999/xlink" x="0px" y="0px"
	 width="175.24px" height="51.29px" viewBox="0 0 175.24 51.29" style="overflow:visible;enable-background:new 0 0 175.24 51.29;"
	 xml:space="preserve">
<style type="text/css">
	.st0{fill:#FFFFFF;stroke:#000000;stroke-miterlimit:10;}
	.st1{fill:none;stroke:#000000;stroke-miterlimit:10;}
</style>
<defs>
</defs>
<rect x="0.5" y="0.5" class="st0" width="174.24" height="25.05"/>
<rect x="0.5" y="25.74" class="st0" width="174.24" height="25.05"/>
<rect x="0.5" y="0.5" class="st1" width="48.61" height="50.29"/>
<g>
	<path d="M6.81,5.21v0.7H3.8v1.94h2.31v0.68H3.8v2.06h3.12v0.72H3.14v-6.1H6.81z"/>
	<path d="M12.85,6.96l-1.46,2.08l1.58,2.28h-0.8L11,9.62l-1.18,1.69H9.03l1.59-2.24L9.17,6.95h0.8l1.04,1.55l1.07-1.54H12.85z"/>
	<path d="M18.86,11.33c-0.72,0-0.79,0-0.91-0.06c-0.13-0.06-0.3-0.18-0.35-0.5c-0.49,0.51-0.96,0.68-1.4,0.68
		c-1.03,0-1.09-0.98-1.09-1.22c0-1.34,1.55-1.63,2.43-1.79c-0.01-0.25-0.04-0.76-0.49-0.95c-0.11-0.04-0.24-0.08-0.33-0.08
		c-0.1,0-0.21,0.03-0.29,0.07c-0.37,0.16-0.43,0.42-0.47,0.63h-0.74c0.08-0.39,0.25-1.01,1-1.24c0.17-0.05,0.38-0.09,0.5-0.09
		c0.29,0,0.82,0.1,1.13,0.53c0.33,0.45,0.33,0.79,0.33,2.9c0,0.48,0.07,0.48,0.67,0.48V11.33z M17.56,9.02
		c-0.75,0.13-1.78,0.42-1.78,1.22c0,0.24,0.15,0.55,0.53,0.55c0.49,0,0.9-0.36,1.24-0.8V9.02z"/>
	<path d="M25.99,11.31h-0.62V8.49c0-0.29-0.03-1.05-0.66-1.05c-0.21,0-0.61,0.16-1.14,0.97v2.88h-0.61V8.48
		c0-0.35-0.01-0.75-0.33-0.96c-0.08-0.04-0.17-0.08-0.27-0.08c-0.48,0-0.94,0.66-1.13,0.94v2.92l-0.61,0.01V6.95h0.61v0.69
		c0.35-0.43,0.72-0.84,1.22-0.84c0.48,0,0.89,0.31,1.04,0.89c0.33-0.39,0.77-0.89,1.33-0.89c0.12,0,0.46,0.05,0.73,0.29
		c0.37,0.32,0.46,0.79,0.46,1.27V11.31z"/>
	<path d="M29.41,5.23l0.11,0.14v0.6l-0.13,0.14h-0.51l-0.11-0.13V5.37l0.09-0.14H29.41z M29.46,6.9v4.4H28.8V6.9H29.46z"/>
	<path d="M36.08,11.31h-0.62V8.33c0-0.5-0.22-0.89-0.67-0.89c-0.31,0-0.79,0.25-1.33,0.99v2.87h-0.61V6.99h0.61v0.69
		c0.25-0.29,0.71-0.84,1.36-0.84c1.2,0,1.25,1.05,1.26,1.62V11.31z"/>
	<path d="M41.98,10.11c-0.12,0.39-0.39,1.35-1.6,1.35c-0.09,0-0.51-0.03-0.87-0.25c-0.63-0.38-0.92-1.25-0.92-2.06
		c0-1.32,0.64-2.38,1.74-2.38c0.43,0,0.84,0.16,1.15,0.49c0.51,0.58,0.56,1.36,0.56,1.91h-2.79c0.04,0.58,0.14,1.08,0.5,1.4
		c0.17,0.15,0.38,0.24,0.61,0.24c0.57,0,0.78-0.33,0.9-0.71H41.98z M41.35,8.6c-0.04-0.32-0.15-1.21-1.03-1.21
		c-0.17,0-0.41,0.08-0.63,0.27c-0.22,0.21-0.34,0.52-0.41,0.94H41.35z"/>
	<path d="M47.85,10.11c-0.12,0.39-0.39,1.35-1.6,1.35c-0.09,0-0.51-0.03-0.87-0.25c-0.63-0.38-0.92-1.25-0.92-2.06
		c0-1.32,0.64-2.38,1.74-2.38c0.43,0,0.84,0.16,1.15,0.49c0.51,0.58,0.56,1.36,0.56,1.91h-2.79c0.04,0.58,0.14,1.08,0.5,1.4
		c0.17,0.15,0.38,0.24,0.61,0.24c0.57,0,0.78-0.33,0.9-0.71H47.85z M47.23,8.6c-0.04-0.32-0.15-1.21-1.03-1.21
		c-0.17,0-0.41,0.08-0.63,0.27c-0.22,0.21-0.34,0.52-0.41,0.94H47.23z"/>
	<path d="M19.39,14.24l2.73,4.73v-4.75h0.65v6.08h-0.69l-2.81-4.88v4.88h-0.65v-6.06H19.39z"/>
	<path d="M28.46,18.12c0,2.17-1.36,2.36-1.57,2.36c-1.28,0-1.78-1.08-1.78-2.36c0-1.58,0.87-2.32,1.65-2.32
		C27.41,15.8,28.46,16.28,28.46,18.12z M26.79,19.84c0.71,0,1.04-0.79,1.04-1.72c0-0.71-0.2-1.72-1.03-1.72
		c-0.35,0-0.64,0.22-0.8,0.5c-0.21,0.37-0.24,0.95-0.24,1.22C25.75,18.99,26.02,19.84,26.79,19.84z"/>
	<path d="M31.91,19.34l0.12,0.14v0.72l-0.12,0.15h-0.63l-0.12-0.16v-0.68l0.12-0.16H31.91z"/>
</g>
<g>
	<path d="M11.79,35.11l3.27,4.73v-4.75h0.78v6.08h-0.83l-3.37-4.88v4.88h-0.78v-6.06H11.79z"/>
	<path d="M22.99,41.2c-0.87,0-0.94,0-1.09-0.06c-0.16-0.06-0.36-0.18-0.42-0.5c-0.59,0.51-1.15,0.68-1.68,0.68
		c-1.24,0-1.31-0.98-1.31-1.22c0-1.34,1.86-1.63,2.92-1.79c-0.01-0.25-0.04-0.76-0.59-0.95c-0.13-0.04-0.29-0.08-0.4-0.08
		c-0.12,0-0.25,0.03-0.35,0.07c-0.44,0.16-0.51,0.42-0.56,0.63h-0.88c0.09-0.39,0.3-1.01,1.19-1.24c0.21-0.05,0.46-0.09,0.61-0.09
		c0.35,0,0.99,0.1,1.36,0.53c0.39,0.45,0.39,0.79,0.39,2.9c0,0.48,0.09,0.48,0.8,0.48V41.2z M21.44,38.89
		c-0.9,0.13-2.13,0.42-2.13,1.22c0,0.24,0.18,0.55,0.64,0.55c0.59,0,1.08-0.36,1.49-0.8V38.89z"/>
	<path d="M31.46,41.18h-0.74v-2.81c0-0.29-0.04-1.05-0.8-1.05c-0.25,0-0.73,0.16-1.37,0.97v2.88h-0.74v-2.82
		c0-0.35-0.01-0.75-0.4-0.96c-0.09-0.04-0.21-0.08-0.32-0.08c-0.57,0-1.12,0.66-1.36,0.94v2.92L25,41.18v-4.36h0.74v0.69
		c0.42-0.43,0.87-0.84,1.46-0.84c0.58,0,1.06,0.31,1.25,0.89c0.4-0.39,0.93-0.89,1.59-0.89c0.14,0,0.55,0.05,0.87,0.29
		c0.44,0.32,0.54,0.79,0.54,1.27V41.18z"/>
	<path d="M37.77,39.98c-0.14,0.39-0.47,1.35-1.92,1.35c-0.11,0-0.61-0.03-1.04-0.25c-0.75-0.38-1.11-1.25-1.11-2.06
		c0-1.32,0.76-2.38,2.08-2.38c0.51,0,1.01,0.16,1.38,0.49c0.61,0.58,0.67,1.36,0.67,1.91h-3.35c0.05,0.58,0.17,1.08,0.6,1.4
		c0.21,0.15,0.45,0.24,0.74,0.24c0.68,0,0.93-0.33,1.08-0.71H37.77z M37.02,38.47c-0.05-0.32-0.18-1.21-1.23-1.21
		c-0.2,0-0.49,0.08-0.76,0.27c-0.26,0.21-0.41,0.52-0.49,0.94H37.02z"/>
</g>
</svg>
