<!-- Generator: Adobe Illustrator 25.2.3, SVG Export Plug-In  -->
<svg version="1.1" xmlns="http://www.w3.org/2000/svg" xmlns:xlink="http://www.w3.org/1999/xlink" x="0px" y="0px"
	 width="175.24px" height="51.29px" viewBox="0 0 175.24 51.29" style="overflow:visible;enable-background:new 0 0 175.24 51.29;"
	 xml:space="preserve">
<style type="text/css">
	.st0{fill:#FFFFFF;stroke:#000000;stroke-miterlimit:10;}
	.st1{fill:none;stroke:#000000;stroke-miterlimit:10;}
</style>
<defs>
</defs>
<rect x="0.5" y="0.5" class="st0" width="174.24" height="25.05"/>
<rect x="0.5" y="25.74" class="st0" width="174.24" height="25.05"/>
<rect x="0.5" y="0.5" class="st1" width="48.61" height="50.29"/>
<g>
	<path d="M13.69,12.61l0.45,0.4c-1,1.12-1.01,1.12-1.82,1.75c0.86,0.48,1.71,0.76,3.14,0.9c-0.17,0.21-0.26,0.42-0.31,0.61
		c-0.61-0.1-0.9-0.19-1.15-0.27c-0.81-0.23-1.33-0.39-2.24-0.91c-0.84,0.42-1.53,0.76-3.49,1.12c-0.05-0.19-0.13-0.38-0.26-0.58
		c1.34-0.15,2.32-0.42,3.24-0.89c-0.49-0.4-0.77-0.68-1.27-1.53H9.22v-0.52h4.36L13.69,12.61z M15.19,11.33v1.64h-0.58v-1.12H8.82
		v1.14H8.24v-1.66h4.68c0.29-0.49,0.54-1,0.84-1.61l0.58,0.32c-0.26,0.43-0.5,0.86-0.75,1.29H15.19z M14.83,9.24
		c-2.02,0.28-4.02,0.42-6.29,0.42C8.48,9.46,8.4,9.32,8.29,9.14c1.43,0,1.59,0,2.99-0.07c1.39-0.05,2.35-0.17,3.19-0.35L14.83,9.24z
		 M9.47,9.88c0.18,0.3,0.33,0.65,0.45,1l-0.48,0.18c-0.11-0.35-0.26-0.68-0.45-0.99L9.47,9.88z M10.63,13.2
		c0.26,0.54,0.76,0.95,1.17,1.23c0.6-0.39,0.84-0.61,1.36-1.23H10.63z M11.56,9.79c0.17,0.34,0.32,0.7,0.42,1.06l-0.5,0.16
		c-0.11-0.35-0.24-0.71-0.41-1.02L11.56,9.79z"/>
	<path d="M17.05,13.96c-0.05,0.48-0.12,1-0.24,1.49l-0.34-0.1c0.11-0.45,0.2-1,0.26-1.43L17.05,13.96z M19.78,8.99v0.53h-1.09v0.74
		h0.87v0.48h-0.87v0.78h0.92v0.48h-0.92v0.88h1.21c-0.02,0.36-0.12,2.68-0.4,3.1c-0.11,0.18-0.29,0.26-1.25,0.34
		c-0.03-0.16-0.05-0.37-0.16-0.58h0.8c0.22,0,0.25-0.24,0.31-0.74c0.07-0.56,0.07-0.64,0.13-1.64h-1.89v0.27h-0.52V8.99H19.78z
		 M17.58,13.96c0.08,0.44,0.13,0.85,0.16,1.28l-0.35,0.01c-0.03-0.36-0.04-0.75-0.1-1.27L17.58,13.96z M17.44,9.52v0.74h0.74V9.52
		H17.44z M17.44,10.74v0.78h0.74v-0.78H17.44z M17.44,11.99v0.88h0.74v-0.88H17.44z M18.15,13.82c0.11,0.35,0.22,0.72,0.29,1.12
		l-0.29,0.07c-0.07-0.38-0.16-0.78-0.25-1.12L18.15,13.82z M18.66,13.7c0.17,0.28,0.33,0.61,0.45,0.99l-0.28,0.08
		c-0.11-0.32-0.24-0.66-0.42-0.99L18.66,13.7z M22.35,8.76l-0.19,0.3c0.41,0.42,1.09,1.06,2.15,1.68c-0.19,0.2-0.29,0.35-0.38,0.54
		c-0.27-0.2-0.52-0.39-0.74-0.55v0.45h-0.95v0.67h1.56v2.04H22.4c0.32,0.7,0.77,1.33,1.9,1.91c-0.24,0.2-0.35,0.35-0.42,0.54
		c-0.59-0.38-1.21-0.82-1.89-2c-0.22,0.48-0.35,0.67-0.47,0.82c-0.43,0.6-0.93,1.01-1.27,1.21c-0.1-0.17-0.22-0.38-0.39-0.53
		c1.06-0.61,1.5-1.34,1.68-1.96h-1.3v-2.04h1.45v-0.67h-1.04v-0.31c-0.23,0.23-0.48,0.46-0.69,0.63c-0.11-0.16-0.23-0.27-0.43-0.4
		c1.06-0.88,1.57-1.59,2.3-2.59L22.35,8.76z M20.79,12.34v1.09h0.85c0.05-0.29,0.05-0.65,0.05-1.09H20.79z M23.1,10.65
		c-0.41-0.32-1-0.93-1.22-1.17c-0.48,0.57-0.74,0.88-1.03,1.17H23.1z M23.23,13.43v-1.09h-1c0,0.4-0.02,0.74-0.04,1.09H23.23z"/>
	<path d="M28.79,10.69V9.53c-0.92,0.08-1.83,0.1-2.73,0.12c-0.04-0.17-0.12-0.38-0.27-0.54h0.39c1.18,0,3.63-0.07,5.55-0.41
		l0.42,0.49c-0.95,0.15-2.13,0.25-2.84,0.3v1.19h1.06c0.25-0.43,0.48-0.93,0.66-1.31l0.52,0.32c-0.22,0.38-0.42,0.7-0.58,0.99h1.87
		v0.5h-2.95c0.93,1.02,1.89,1.56,3.16,2c-0.18,0.15-0.3,0.35-0.41,0.5c-0.37-0.17-0.71-0.32-1-0.49v3.17h-0.54v-0.35h-3.9v0.38
		h-0.54v-3.25c-0.3,0.2-0.74,0.42-1.09,0.58c-0.09-0.16-0.18-0.35-0.38-0.5c0.59-0.22,0.91-0.38,1.16-0.54
		c0.41-0.23,1.26-0.79,1.9-1.5H25.3v-0.5h1.88c-0.12-0.22-0.29-0.51-0.51-0.81l0.47-0.22c0.22,0.27,0.5,0.75,0.65,1.03H28.79z
		 M29.31,12.74h-0.52v-1.43c-0.38,0.46-0.63,0.68-0.88,0.9c-0.28,0.23-0.55,0.46-1.04,0.78h4.36c-0.9-0.58-1.49-1.12-1.92-1.7V12.74
		z M27.18,13.49v0.78h1.58v-0.78H27.18z M27.18,14.74v0.78h1.58v-0.78H27.18z M29.31,13.49v0.78h1.77v-0.78H29.31z M29.31,14.74
		v0.78h1.77v-0.78H29.31z"/>
	<path d="M41.51,11.92v0.55h-5.36c-0.08,0.29-0.14,0.56-0.22,0.91h4.47c-0.03,0.27-0.15,1.84-0.29,2.34
		c-0.16,0.59-0.49,0.61-1.61,0.67c-0.02-0.22-0.08-0.42-0.17-0.62h0.83c0.22,0,0.31-0.04,0.36-0.21c0.04-0.15,0.13-0.73,0.18-1.64
		h-3.9c-0.07,0.23-0.13,0.48-0.23,0.75l-0.6-0.14c0.34-1.14,0.4-1.38,0.56-2.07h-1.69v-0.55H41.51z M40.27,8.91v2.28h-5.16V8.91
		H40.27z M35.71,9.46v1.19h3.95V9.46H35.71z"/>
</g>
<g>
	<path d="M19.72,37.24v0.54h-2.63c0.17,1.32,0.56,2.32,1.18,2.97c0.08,0.08,0.43,0.46,0.67,0.46c0.19,0,0.29-0.5,0.36-0.92
		c0.19,0.13,0.39,0.23,0.62,0.27c-0.2,0.94-0.36,1.26-0.87,1.26c-0.81,0-1.58-0.87-2.05-2.05c-0.32-0.82-0.41-1.32-0.48-1.99h-2.62
		v3.08c0.75-0.13,1.63-0.27,2.56-0.48l-0.01,0.57c-1.06,0.23-3.67,0.73-3.99,0.78l-0.16-0.63c0.41-0.05,0.73-0.1,1-0.14v-6
		l0.57,0.12c0.37,0,3-0.18,5.12-0.65l0.28,0.6c-0.68,0.12-1.5,0.23-2.28,0.32c-0.02,0.7,0.01,1.4,0.07,1.9H19.72z M13.88,37.24h2.56
		c-0.05-0.51-0.09-1.24-0.09-1.83c-0.86,0.09-1.79,0.16-2.47,0.2V37.24z"/>
	<path d="M35.36,35.04l0.1-0.08l0.48,0.42c-0.83,1.14-1.69,2.16-2.99,3.08h3.53v3.47h-0.58v-0.51h-3.62v0.53H31.7v-2.67
		c-0.72,0.37-1.12,0.57-1.7,0.81c-0.07-0.17-0.23-0.42-0.38-0.58c0.85-0.29,1.76-0.61,2.92-1.49c-0.3-0.33-0.8-0.82-1.17-1.11
		l0.42-0.39c0.35,0.29,0.88,0.78,1.25,1.16c0.67-0.56,1.13-0.99,2.01-2.12h-2.79c-0.59,0.55-1.45,1.32-2.29,1.8
		c-0.1-0.16-0.24-0.35-0.42-0.48c0.74-0.37,1.41-0.94,1.75-1.25c0.58-0.54,0.98-1.04,1.31-1.5l0.56,0.24
		c-0.17,0.25-0.31,0.45-0.5,0.66H35.36z M32.28,39v1.9h3.62V39H32.28z"/>
</g>
</svg>
